<?xml version="1.0" encoding="utf-8"?>
<!-- Generator: Adobe Illustrator 23.0.1, SVG Export Plug-In . SVG Version: 6.00 Build 0)  -->
<svg version="1.1" id="Layer_1" xmlns="http://www.w3.org/2000/svg" xmlns:xlink="http://www.w3.org/1999/xlink" x="0px" y="0px"
	 viewBox="0 0 353 304" style="enable-background:new 0 0 353 304;" xml:space="preserve">
<style type="text/css">
	.st0{fill:none;stroke:#EA5455;stroke-width:3;}
</style>
<g>
	<path class="st0" d="M180.3,759c102.1-21.6,155.2-61.3,159.4-119.1c6.3-86.6-231.6-17.2-136.4-198
		c95.2-180.8,181.3-185.3,136.4-298S174-28,33.8,16.8c-93.5,29.8-144.7,140.5-153.5,332.1"/>
	<path class="st0" d="M138.3,759c80.1-19,121.8-53.8,125.1-104.6c4.9-76.1-181.7-15.1-107-173.9c74.7-158.8,142.2-162.7,107-261.7
		c-35.3-99-130-150.9-240-111.6C-50,133.4-90.1,230.6-97,398.9"/>
	<path class="st0" d="M102.1,761c60.6-16.6,92.2-47,94.6-91.2c3.7-66.4-137.5-13.2-80.9-151.7c56.5-138.5,107.6-141.9,80.9-228.3
		C170,203.5,98.4,158.2,15.1,192.5C-40.4,215.3-70.8,300.1-76,446.9"/>
</g>
</svg>
