<?xml version="1.0" encoding="utf-8"?>
<!-- Generator: Adobe Illustrator 23.0.1, SVG Export Plug-In . SVG Version: 6.00 Build 0)  -->
<svg version="1.1" id="Layer_1" xmlns="http://www.w3.org/2000/svg" xmlns:xlink="http://www.w3.org/1999/xlink" x="0px" y="0px"
	 viewBox="0 0 375 658" style="enable-background:new 0 0 375 658;" xml:space="preserve">
<style type="text/css">
	.st0{fill:none;stroke:#EA5455;stroke-width:4;}
</style>
<g>
	<path class="st0" d="M172.7-101C70.6-79.4,17.5-39.7,13.3,18.1c-6.3,86.6,231.6,17.2,136.4,198C54.4,396.9-31.7,401.4,13.3,514.1
		S179,686,319.2,641.2c93.5-29.8,144.7-140.5,153.5-332.1"/>
	<path class="st0" d="M214.7-101C134.6-82,92.9-47.2,89.6,3.6c-4.9,76.1,181.7,15.1,107,173.9c-74.7,158.8-142.2,162.7-107,261.7
		c35.3,99,130,151,240,111.6C403,524.6,443.1,427.4,450,259.1"/>
	<path class="st0" d="M250.9-103c-60.6,16.6-92.2,47-94.6,91.2c-3.7,66.4,137.5,13.2,80.9,151.7c-56.5,138.5-107.6,141.9-80.9,228.3
		c26.7,86.3,98.4,131.7,181.6,97.4c55.5-22.9,85.9-107.7,91.1-254.4"/>
</g>
</svg>
